<svg width="24" height="24" viewBox="0 0 24 24" fill="none" xmlns="http://www.w3.org/2000/svg">
<path d="M4 7.43323C4 6.73734 4.69609 6.24529 5.36485 6.43773C6.29622 6.70574 7.53175 6.99722 8.5 6.99722C11.6014 6.99722 14.3986 5 17.5 5C18.7427 5 20.4256 5.48013 21.3408 5.77455C21.7395 5.90282 22 6.27682 22 6.69566V16.6127C22 17.29 21.3397 17.7768 20.6854 17.6019C19.7478 17.3512 18.4841 17.0561 17.5 16.9833C13.9236 16.7188 12.0764 19.2451 8.5 18.9806C7.27752 18.8901 5.62336 18.4566 4.69911 18.1914C4.28094 18.0714 4 17.6867 4 17.2516V7.43323Z" fill="#3ADBA9" stroke="#253D35" stroke-width="1.5" stroke-linejoin="round"/>
<path d="M8.5 21.9806C12.0764 22.2451 13.9236 19.719 17.5 19.9835C17.7391 20.0012 18.2652 20.032 18.7883 20.0721C19.4173 20.1203 20 19.6153 20 18.9844V18.1715C20 17.7654 19.7536 17.4 19.3637 17.2862C18.6102 17.0664 17.2934 16.7844 16 17C13 17.5 11 19.4 8 18.9C6.50251 18.6504 5.37011 18.3789 4.69898 18.2002C4.27999 18.0885 4 17.7063 4 17.2727V10C4 9.44772 3.55228 9 3 9H2C1.44772 9 1 9.44771 1 10V19.3786C1 19.7591 1.21528 20.1087 1.56121 20.2672C3.78966 21.2882 5.93963 21.7912 8.5 21.9806Z" fill="#3ADBA9" stroke="#253D35" stroke-width="1.5" stroke-linejoin="round"/>
<circle cx="13" cy="12" r="3" fill="white" stroke="#253D35" stroke-width="1.5" stroke-linejoin="round"/>
<path d="M7 13H7.01" stroke="#253D35" stroke-width="1.5" stroke-linecap="round" stroke-linejoin="round"/>
<path d="M19 11H19.01" stroke="#253D35" stroke-width="1.5" stroke-linecap="round" stroke-linejoin="round"/>
</svg>
